PathFileType	4	(X/Y/Z)	/Users/itak/Documents/Research/Walk-IL/dataset/trc/00451_00167.trc
DataRate	CameraRate	NumFrames	NumMarkers	Units	OrigDataRate	OrigDataStartFrame	OrigNumFrames
100.000000	100.000000	4	53	mm	100.000000	398	455
Frame#	Time	RPSI			LPSI			L3			STRN			T10			C7			CLAV			RBAK			LBAK			LSHO			LUPA			LAEL			LAOL			LWTS			LWPS			LFRA			LIFD			LHPS			LHTS			RSHO			RUPA			RAEL			RAOL			RWTS			RWPS			RFRA			RIFD			RHTS			RHPS			RBHD			LFHD			RFHD			LBHD			LHIP			RHIP			RASI			LASI			LKNE			LTHI			LANK			LTIP			LTOE			LMT1			LMT5			LHEE			RKNE			RTHI			RANK			RTIP			RTOE			RMT1			RMT5			RHEE			
		X1	Y1	Z1	X2	Y2	Z2	X3	Y3	Z3	X4	Y4	Z4	X5	Y5	Z5	X6	Y6	Z6	X7	Y7	Z7	X8	Y8	Z8	X9	Y9	Z9	X10	Y10	Z10	X11	Y11	Z11	X12	Y12	Z12	X13	Y13	Z13	X14	Y14	Z14	X15	Y15	Z15	X16	Y16	Z16	X17	Y17	Z17	X18	Y18	Z18	X19	Y19	Z19	X20	Y20	Z20	X21	Y21	Z21	X22	Y22	Z22	X23	Y23	Z23	X24	Y24	Z24	X25	Y25	Z25	X26	Y26	Z26	X27	Y27	Z27	X28	Y28	Z28	X29	Y29	Z29	X30	Y30	Z30	X31	Y31	Z31	X32	Y32	Z32	X33	Y33	Z33	X34	Y34	Z34	X35	Y35	Z35	X36	Y36	Z36	X37	Y37	Z37	X38	Y38	Z38	X39	Y39	Z39	X40	Y40	Z40	X41	Y41	Z41	X42	Y42	Z42	X43	Y43	Z43	X44	Y44	Z44	X45	Y45	Z45	X46	Y46	Z46	X47	Y47	Z47	X48	Y48	Z48	X49	Y49	Z49	X50	Y50	Z50	X51	Y51	Z51	X52	Y52	Z52	X53	Y53	Z53	

399	3.98	992.6708984375	924.1493530273438	1018.865844726562	1071.061767578125	920.8865356445312	899.8614501953125	1034.915161132812	1029.685424804688	980.7532348632812	1275.500854492188	1230.003662109375	1113.893920898438	1022.781677246094	1154.195556640625	970.864013671875	1074.027221679688	1424.674560546875	1016.118957519531	1244.01220703125	1343.340209960938	1090.6162109375	974.2732543945312	1304.705322265625	1066.000366210938	1090.034545898438	1374.88916015625	913.0452270507812	1217.9189453125	1399.539184570312	890.2500610351562	1261.945678710938	1290.070190429688	795.8670654296875	1333.308349609375	1100.579956054688	769.444091796875	1241.506713867188	1047.536987304688	773.0783081054688	1416.183471679688	1021.398193359375	941.8889770507812	1447.054443359375	969.1726684570312	899.2279663085938	1386.064819335938	1047.906494140625	819.3031616210938	1495.313842773438	945.8367309570312	1059.646728515625	1491.7080078125	935.5064697265625	960.1763305664062	1473.990844726562	994.54052734375	997.8935546875	1056.359008789062	1394.2236328125	1190.311279296875	1000.241882324219	1334.92578125	1244.801879882812	942.99658203125	1056.257568359375	1293.65185546875	913.9070434570312	1043.206787109375	1233.854736328125	1031.899658203125	844.978759765625	1303.934326171875	946.9476318359375	840.1865844726562	1322.612670898438	935.842041015625	998.5352172851562	1303.952880859375	1009.479797363281	687.3043212890625	1313.59033203125	1027.01025390625	744.5230712890625	1324.56689453125	952.2510375976562	751.67041015625	1331.4951171875	1106.21826171875	1622.076293945312	1120.224609375	1292.035888671875	1639.903930664062	1032.379272460938	1238.42041015625	1646.457397460938	1150.54296875	1163.778930664062	1617.031127929688	952.5914306640625	1259.621948242188	831.0419921875	881.1331787109375	1026.104614257812	833.2659912109375	1205.06396484375	1141.187133789062	884.9534912109375	1205.024047851562	1288.996948242188	877.8544311523438	995.7117919921875	1344.716186523438	420.3671875	962.2025146484375	1347.644165039062	578.15966796875	942.59228515625	1212.212524414062	23.22145462036133	855.6695556640625	1314.656616210938	265.8923950195312	923.8961181640625	1364.796508789062	27.40939903259277	1044.490234375	1286.490356445312	39.7314453125	1028.8359375	1343.454467773438	31.10688972473145	929.5653076171875	1138.658325195312	15.44333648681641	871.1432495117188	1137.957153320312	453.4600219726562	1244.5419921875	1096.944580078125	710.8250732421875	1266.810546875	1057.14013671875	32.6677131652832	1192.704467773438	1121.753540039062	307.2596435546875	1248.176513671875	1270.106079101562	34.74953079223633	1262.001708984375	1232.50048828125	41.14254760742188	1200.16015625	1159.818359375	34.0222053527832	1282.9189453125	1024.621704101562	26.12407684326172	1120.516845703125	
400	3.99	993.9447631835938	924.9408569335938	1020.659545898438	1072.904418945312	922.0487060546875	901.9935913085938	1036.44775390625	1030.545043945312	983.0857543945312	1276.8623046875	1230.164916992188	1117.325927734375	1024.331176757812	1155.10986328125	973.6076049804688	1075.831298828125	1425.302734375	1019.887145996094	1245.625	1343.632568359375	1094.266723632812	975.8555297851562	1305.307861328125	1069.619995117188	1091.9443359375	1375.869873046875	916.783203125	1219.958740234375	1400.143798828125	894.0473022460938	1263.479614257812	1290.538696289062	799.601806640625	1332.847534179688	1099.1552734375	772.3517456054688	1239.973266601562	1048.602416992188	776.0509643554688	1415.577514648438	1012.408264160156	941.4248046875	1444.241333007812	960.4959106445312	896.8944091796875	1384.854614257812	1043.394653320312	820.0055541992188	1493.785522460938	931.18505859375	1055.873046875	1488.591918945312	923.8043212890625	956.2659301757812	1473.190063476562	982.3097534179688	995.844482421875	1058.108642578125	1394.546508789062	1194.009521484375	1002.348449707031	1335.129272460938	1248.715454101562	946.7948608398438	1056.40087890625	1298.630126953125	917.405029296875	1042.826049804688	1239.037841796875	1037.439575195312	845.9207763671875	1309.848388671875	952.5918579101562	840.8734741210938	1328.753051757812	940.1983642578125	998.678955078125	1309.283935546875	1015.862365722656	688.1779174804688	1321.30419921875	1033.16748046875	745.6305541992188	1331.535766601562	958.2274169921875	752.3086547851562	1338.332763671875	1108.350341796875	1622.579345703125	1124.518920898438	1294.14013671875	1640.028442382812	1036.509155273438	1240.6142578125	1646.506591796875	1154.666259765625	1165.742065429688	1617.63818359375	956.84033203125	1261.137084960938	831.666259765625	883.7794799804688	1026.233764648438	833.4927368164062	1206.695190429688	1141.4765625	885.0279541015625	1207.392578125	1290.248291015625	877.9005126953125	998.511474609375	1344.313232421875	420.3985290527344	963.2976684570312	1347.802734375	578.1723022460938	944.2830200195312	1212.154907226562	23.38387298583984	855.70556640625	1314.300659179688	265.9732360839844	924.6195068359375	1364.581420898438	27.45258522033691	1044.595092773438	1286.258911132812	39.60897445678711	1028.959350585938	1343.221069335938	31.31362533569336	929.83544921875	1138.644287109375	15.43966197967529	871.1425170898438	1137.265625	453.3850402832031	1245.542114257812	1097.280883789062	710.5768432617188	1268.458251953125	1056.99169921875	32.50704956054688	1192.7880859375	1121.282592773438	307.1167602539062	1248.89892578125	1270.061645507812	34.71659851074219	1262.00927734375	1232.418823242188	41.24930572509766	1200.278442382812	1159.798828125	33.99075317382812	1283.0107421875	1024.496826171875	25.99460029602051	1120.652954101562	
401	4	995.2406616210938	925.8350830078125	1022.439697265625	1074.693603515625	923.35107421875	904.0999145507812	1037.974243164062	1031.500122070312	985.3764038085938	1278.150756835938	1230.48046875	1120.625	1025.861450195312	1156.11962890625	976.2132568359375	1077.586791992188	1426.042114257812	1023.428588867188	1247.155151367188	1344.0693359375	1097.779174804688	977.3948974609375	1305.995727539062	1072.971923828125	1093.847290039062	1376.949462890625	920.3124389648438	1221.97265625	1400.870971679688	897.6830444335938	1265.037109375	1291.133056640625	803.205078125	1332.2861328125	1097.828369140625	775.0927124023438	1238.353759765625	1049.831176757812	778.914794921875	1414.529663085938	1003.461120605469	940.54345703125	1440.953979492188	951.9777221679688	894.1538696289062	1383.383544921875	1039.025268554688	820.463623046875	1491.551513671875	916.69873046875	1051.517456054688	1484.884033203125	912.2952880859375	951.8690795898438	1471.836669921875	970.17529296875	993.2588500976562	1059.652465820312	1395.033081054688	1197.422241210938	1004.182006835938	1335.565795898438	1252.32861328125	950.3070068359375	1056.734252929688	1303.28857421875	920.7386474609375	1042.54150390625	1243.867065429688	1043.1142578125	847.267822265625	1315.580078125	958.352294921875	841.679443359375	1334.610595703125	944.3589477539062	999.0061645507812	1314.3076171875	1022.835815429688	689.468994140625	1328.83203125	1039.726928710938	747.18505859375	1338.360595703125	964.6295166015625	753.2163696289062	1344.947387695312	1110.429565429688	1623.207275390625	1128.710815429688	1296.197021484375	1640.268676757812	1040.544921875	1242.748168945312	1646.63232421875	1158.699462890625	1167.658935546875	1618.398315429688	961.0038452148438	1262.598876953125	832.4473266601562	886.35693359375	1026.445068359375	833.8452758789062	1208.344116210938	1141.843017578125	885.1961669921875	1209.689697265625	1291.567016601562	878.190673828125	1001.299926757812	1343.704345703125	420.518798828125	964.1270751953125	1347.802856445312	578.2920532226562	945.77783203125	1212.10693359375	23.50678825378418	855.706787109375	1313.837890625	266.1503295898438	925.172119140625	1364.358642578125	27.50199127197266	1044.660278320312	1286.046020507812	39.51366806030273	1029.047241210938	1342.976318359375	31.51212501525879	930.0811157226562	1138.634887695312	15.43892955780029	871.123046875	1136.421875	453.349609375	1246.292358398438	1097.699096679688	710.4545288085938	1270.123413085938	1056.869018554688	32.3526725769043	1192.851318359375	1120.663452148438	307.0052795410156	1249.435668945312	1270.010864257812	34.70780181884766	1261.986938476562	1232.341064453125	41.35317230224609	1200.369873046875	1159.762573242188	33.97527694702148	1283.085083007812	1024.391723632812	25.86097526550293	1120.745483398438	
402	4.01	996.5694580078125	926.8492431640625	1024.207885742188	1076.415771484375	924.7660522460938	906.18896484375	1039.499755859375	1032.534301757812	987.6480102539062	1279.38232421875	1230.924072265625	1123.808471679688	1027.365112304688	1157.19970703125	978.7074584960938	1079.295288085938	1426.876586914062	1026.747924804688	1248.616333007812	1344.620483398438	1101.15869140625	978.8922729492188	1306.759399414062	1076.064208984375	1095.737670898438	1378.096435546875	923.6309814453125	1223.973266601562	1401.681030273438	901.1630249023438	1266.61181640625	1291.816650390625	806.6686401367188	1331.633422851562	1096.622192382812	777.65966796875	1236.677978515625	1051.19140625	781.6237182617188	1413.018188476562	994.6896362304688	939.285888671875	1437.244384765625	943.7830810546875	891.0639038085938	1381.668823242188	1034.884399414062	820.7001342773438	1488.598876953125	902.5447998046875	1046.655029296875	1480.628784179688	901.1681518554688	947.056640625	1469.899047851562	958.2919921875	990.2160034179688	1061.01806640625	1395.660034179688	1200.576293945312	1005.761474609375	1336.199951171875	1255.653076171875	953.5157470703125	1057.226318359375	1307.630004882812	923.8775634765625	1042.33837890625	1248.360107421875	1048.87548828125	849.00146484375	1321.10205078125	964.2091064453125	842.617919921875	1340.197265625	948.29736328125	999.4896850585938	1319.017822265625	1030.411743164062	691.1768188476562	1336.115112304688	1046.680053710938	749.1991577148438	1345.00830078125	971.467041015625	754.396240234375	1351.345947265625	1112.453979492188	1623.933959960938	1132.78076171875	1298.201293945312	1640.611572265625	1044.47900390625	1244.818359375	1646.82568359375	1162.64111328125	1169.529174804688	1619.296020507812	965.0648803710938	1264.009399414062	833.3567504882812	888.8561401367188	1026.767700195312	834.3118896484375	1210.003295898438	1142.305786132812	885.4423217773438	1211.915771484375	1292.9716796875	878.7322998046875	1004.089965820312	1342.917358398438	420.71484375	964.7083129882812	1347.676391601562	578.5039672851562	947.0977172851562	1212.06689453125	23.58443832397461	855.6806640625	1313.289306640625	266.42236328125	925.5584106445312	1364.140380859375	27.56884574890137	1044.671508789062	1285.8544921875	39.44399261474609	1029.0966796875	1342.72705078125	31.70233535766602	930.29443359375	1138.630737304688	15.4434814453125	871.0841674804688	1135.473754882812	453.3410949707031	1246.769775390625	1098.228271484375	710.4461059570312	1271.798706054688	1056.769287109375	32.2002067565918	1192.892578125	1119.950805664062	306.9071655273438	1249.773315429688	1269.955200195312	34.72215270996094	1261.933959960938	1232.2724609375	41.44772338867188	1200.429321289062	1159.713989257812	33.9774055480957	1283.138549804688	1024.30126953125	25.69949150085449	1120.792236328125	
